<svg width="42" height="30" viewBox="0 0 42 30" fill="none" xmlns="http://www.w3.org/2000/svg">
<rect x="0.481506" width="40.8889" height="30" rx="5" fill="white"/>
<path d="M16.6995 19.9325L18.3769 9.42041H20.9978L19.3729 19.9325H16.6995Z" fill="#3C58BF"/>
<path d="M16.6995 19.9325L18.8487 9.42041H20.9978L19.3729 19.9325H16.6995Z" fill="#293688"/>
<path d="M28.66 9.46032C28.147 9.23016 27.3261 9 26.3001 9C23.7351 9 21.8882 10.4385 21.8882 12.5099C21.8882 14.0635 23.1708 14.8691 24.1968 15.3869C25.2228 15.9048 25.5306 16.25 25.5306 16.7104C25.5306 17.4009 24.7098 17.7461 23.9916 17.7461C22.9656 17.7461 22.4012 17.5735 21.5291 17.1707L21.17 16.9981L20.8109 19.3572C21.4265 19.6449 22.5551 19.9326 23.7351 19.9326C26.454 19.9326 28.2496 18.4941 28.2496 16.3076C28.2496 15.0992 27.5826 14.1786 26.0436 13.4306C25.1202 12.9127 24.5559 12.625 24.5559 12.1072C24.5559 11.6468 25.0176 11.1865 26.0436 11.1865C26.9157 11.1865 27.5313 11.3591 27.9931 11.5893L28.2496 11.7044L28.66 9.46032Z" fill="#3C58BF"/>
<path d="M28.66 9.46032C28.147 9.23016 27.3261 9 26.3001 9C23.7351 9 22.3499 10.4385 22.3499 12.5099C22.3499 14.0635 23.1708 14.8691 24.1968 15.3869C25.2228 15.9048 25.5306 16.25 25.5306 16.7104C25.5306 17.4009 24.7098 17.7461 23.9916 17.7461C22.9656 17.7461 22.4012 17.5735 21.5291 17.1707L21.17 16.9981L20.8109 19.3572C21.4265 19.6449 22.5551 19.9326 23.7351 19.9326C26.454 19.9326 28.2496 18.4941 28.2496 16.3076C28.2496 15.0992 27.5826 14.1786 26.0436 13.4306C25.1202 12.9127 24.5559 12.625 24.5559 12.1072C24.5559 11.6468 25.0176 11.1865 26.0436 11.1865C26.9157 11.1865 27.5313 11.3591 27.9931 11.5893L28.2496 11.7044L28.66 9.46032Z" fill="#293688"/>
<path d="M33.0979 9.42041C32.4818 9.42041 32.0197 9.47881 31.763 10.1796L27.9124 19.9325H30.6849L31.1983 18.1805H34.4841L34.7922 19.9325H37.2566L35.1002 9.42041H33.0979ZM31.9171 16.4285C32.0711 15.9029 32.9439 13.3333 32.9439 13.3333C32.9439 13.3333 33.1493 12.6909 33.3033 12.282L33.4573 13.2749C33.4573 13.2749 33.9707 15.9029 34.0734 16.4869H31.9171V16.4285Z" fill="#3C58BF"/>
<path d="M33.714 9.42041C33.0979 9.42041 32.6358 9.47881 32.3791 10.1796L27.9124 19.9325H30.6849L31.1983 18.1805H34.4841L34.7922 19.9325H37.2566L35.1002 9.42041H33.714ZM31.9171 16.4285C32.1224 15.8445 32.9439 13.3333 32.9439 13.3333C32.9439 13.3333 33.1493 12.6909 33.3033 12.282L33.4573 13.2749C33.4573 13.2749 33.9707 15.9029 34.0734 16.4869H31.9171V16.4285Z" fill="#293688"/>
<path d="M12.1053 16.7205L11.8509 15.2021C11.3931 13.4501 9.91775 11.5228 8.28979 10.5884L10.5791 19.9325H13.3263L17.447 9.42041H14.6999L12.1053 16.7205Z" fill="#3C58BF"/>
<path d="M12.1053 16.7205L11.8509 15.2021C11.3931 13.4501 9.91775 11.5228 8.28979 10.5884L10.5791 19.9325H13.3263L17.447 9.42041H15.2086L12.1053 16.7205Z" fill="#293688"/>
<path d="M4.92593 9.42041L5.39035 9.53815C8.69287 10.4212 10.9633 12.6581 11.8406 15.3072L10.9117 10.3034C10.7569 9.59701 10.2925 9.42041 9.7249 9.42041H4.92593Z" fill="#FFBC00"/>
<path d="M4.92593 9.42041C8.22845 10.2805 10.9633 12.5167 11.8406 15.097L10.9633 11.0259C10.8085 10.3378 10.2925 9.93646 9.7249 9.93646L4.92593 9.42041Z" fill="#F7981D"/>
<path d="M4.92593 9.42041C8.22845 10.2805 10.9633 12.5167 11.8406 15.097L11.2214 12.8607C11.0666 12.1727 10.8601 11.4846 10.1377 11.1979L4.92593 9.42041Z" fill="#ED7C00"/>
<path d="M14.6471 16.318L12.904 14.3401L12.0837 16.5507L11.8786 15.0964C11.4172 13.3512 9.93039 11.4315 8.28979 10.5007L10.5969 19.8083H13.3654L14.6471 16.318Z" fill="#051244"/>
<path d="M19.4151 19.8084L17.2105 17.2488L16.8004 19.8084H19.4151Z" fill="#051244"/>
<path d="M25.311 16.2017C25.516 16.4343 25.6186 16.6089 25.5673 16.8416C25.5673 17.5396 24.747 17.8887 24.0293 17.8887C23.0039 17.8887 22.4399 17.7141 21.5684 17.3069L21.2095 17.1324L20.8506 19.5175C21.4658 19.8083 22.5937 20.0992 23.7729 20.0992C25.4135 20.0992 26.7465 19.5757 27.5155 18.6449L25.311 16.2017Z" fill="#051244"/>
<path d="M28.2846 19.8083H30.6942L31.2069 18.0632H34.4881L34.7957 19.8083H37.2566L36.385 15.5617L33.3089 12.1877L33.4627 13.1185C33.4627 13.1185 33.9754 15.7363 34.0779 16.318H31.9246C32.1297 15.7363 32.95 13.2348 32.95 13.2348C32.95 13.2348 33.1551 12.595 33.3089 12.1877" fill="#051244"/>
</svg>
