<svg width="42" height="30" viewBox="0 0 42 30" fill="none" xmlns="http://www.w3.org/2000/svg">
<rect x="0.814789" width="40.8889" height="30" rx="5" fill="white"/>
<mask id="mask0_5_346" style="mask-type:luminance" maskUnits="userSpaceOnUse" x="7" y="9" width="15" height="13">
<path d="M7.03702 9H21.427V22H7.03702V9Z" fill="url(#paint0_linear_5_346)"/>
</mask>
<g mask="url(#mask0_5_346)">
<path fill-rule="evenodd" clip-rule="evenodd" d="M14.2134 14.8868H21.427C21.3627 13.3105 20.9887 11.7485 19.8885 10.7046C18.5781 9.46122 16.2827 9 14.2317 9C12.0969 9 9.73604 9.50588 8.41864 10.84C7.28261 11.9892 7.03702 13.8383 7.03702 15.4997C7.03702 17.2399 7.5175 19.2641 8.74988 20.43C10.0603 21.6707 12.1838 22 14.2317 22C16.221 22 18.3759 21.6281 19.6788 20.4503C20.978 19.2738 21.427 17.4152 21.427 15.6226H14.2134V14.8868Z" fill="url(#paint1_linear_5_346)"/>
</g>
<mask id="mask1_5_346" style="mask-type:luminance" maskUnits="userSpaceOnUse" x="22" y="15" width="13" height="7">
<path d="M22.0811 15.3774H34.7268V21.2642H22.0811V15.3774Z" fill="url(#paint2_linear_5_346)"/>
</mask>
<g mask="url(#mask1_5_346)">
<path fill-rule="evenodd" clip-rule="evenodd" d="M22.0811 15.6228V21.2643H32.0957V21.2564C33.561 21.1798 34.7268 19.9133 34.7268 18.3582C34.7268 16.8025 33.561 15.7001 32.0957 15.6228H22.0811Z" fill="url(#paint3_linear_5_346)"/>
</g>
<path fill-rule="evenodd" clip-rule="evenodd" d="M31.954 9.01312C31.8555 9.01312 31.7344 8.99151 31.6389 9.00376H22.0811V14.8868H32.1499C33.4705 14.7564 34.5088 13.4922 34.5088 11.9442C34.5088 10.309 33.3783 9.01312 31.954 9.01312Z" fill="url(#paint4_linear_5_346)"/>
<defs>
<linearGradient id="paint0_linear_5_346" x1="1446.03" y1="659" x2="7.03702" y2="659" gradientUnits="userSpaceOnUse">
<stop stop-color="#0080CB"/>
<stop offset="1" stop-color="#009759"/>
</linearGradient>
<linearGradient id="paint1_linear_5_346" x1="1446.03" y1="659" x2="7.03702" y2="659" gradientUnits="userSpaceOnUse">
<stop stop-color="#0080CB"/>
<stop offset="1" stop-color="#009759"/>
</linearGradient>
<linearGradient id="paint2_linear_5_346" x1="22.0811" y1="15.3774" x2="1286.65" y2="15.3774" gradientUnits="userSpaceOnUse">
<stop stop-color="#007CC6"/>
<stop offset="1" stop-color="#023F82"/>
</linearGradient>
<linearGradient id="paint3_linear_5_346" x1="22.0811" y1="15.6228" x2="1286.65" y2="15.6228" gradientUnits="userSpaceOnUse">
<stop stop-color="#007CC6"/>
<stop offset="1" stop-color="#023F82"/>
</linearGradient>
<linearGradient id="paint4_linear_5_346" x1="22.0811" y1="9" x2="1264.85" y2="9" gradientUnits="userSpaceOnUse">
<stop stop-color="#007CC6"/>
<stop offset="1" stop-color="#023F82"/>
</linearGradient>
</defs>
</svg>
