<svg width="42" height="30" viewBox="0 0 42 30" fill="none" xmlns="http://www.w3.org/2000/svg">
<rect x="0.59259" width="40.8889" height="30" rx="5" fill="white"/>
<path d="M10.1946 15.0313H10.113L9.97037 14.9406C9.94824 14.9409 9.92989 14.9217 9.9296 14.8973C9.9296 14.8966 9.9296 14.896 9.9296 14.895V14.6449C9.9296 14.5994 9.9296 14.5994 9.97037 14.5541L11.6837 13.3723L9.19524 11.8496H9.03218L6.52336 13.3723L9.33792 15.1904C9.37868 15.1904 9.37869 15.236 9.37869 15.2812V17.9174C9.37869 17.9629 9.37868 17.9629 9.33792 18.0081L9.19524 18.0989H9.11371L8.97103 18.0081C8.93027 18.0081 8.93026 17.9626 8.93026 17.9174V15.5762C8.93085 15.5519 8.91309 15.5313 8.89096 15.5307C8.89037 15.5307 8.89008 15.5307 8.8895 15.5307L6.38068 13.9172V17.0534C6.39029 17.1288 6.41853 17.1993 6.46221 17.258L8.99112 18.9167C9.03189 18.9167 9.03189 18.9622 9.07265 18.9622C9.11342 18.9622 9.15418 18.9622 9.15418 18.9167L11.6831 17.2577C11.7378 17.2073 11.7681 17.1317 11.7646 17.0531V13.9169L10.1946 15.0313Z" fill="url(#paint0_linear_5_360)"/>
<path d="M28.2857 18.0311H27.634V14.5085C27.9584 14.3629 28.3029 14.2782 28.6529 14.2583C29.4335 14.2583 29.9783 14.8003 29.9783 15.5764C29.9783 16.4574 29.4953 16.9629 28.6529 16.9629V16.3946C28.834 16.4032 29.0093 16.324 29.1324 16.1774C29.2542 16.0068 29.3156 15.7932 29.3054 15.5764C29.3383 15.2112 29.096 14.886 28.7644 14.85C28.7274 14.8459 28.6898 14.8459 28.6529 14.8494C28.5245 14.8282 28.3934 14.8606 28.2857 14.9402V18.0311ZM14.804 17.1219C14.1433 17.1514 13.5859 16.5854 13.5592 15.8577C13.5577 15.817 13.558 15.7762 13.5597 15.7355C13.5254 15.0081 14.0329 14.3876 14.6933 14.3497C14.7303 14.3475 14.767 14.3475 14.804 14.3491C15.0317 14.3177 15.2623 14.3738 15.4568 14.5082V15.1897C15.2966 15.0248 15.0844 14.935 14.8651 14.9398C14.5332 14.9081 14.2408 15.1788 14.212 15.5444C14.2088 15.5851 14.2091 15.6265 14.2126 15.6672C14.1797 16.0325 14.4219 16.3577 14.7536 16.3936C14.7906 16.3978 14.8281 16.3978 14.8651 16.3942C14.9854 16.3901 15.105 16.3728 15.2224 16.3423H15.2256C15.3013 16.3218 15.3788 16.3089 15.4568 16.3044V16.9638L15.3974 16.9837L15.3837 16.9885L15.3645 16.9952C15.1845 17.0687 14.9956 17.1113 14.804 17.1219ZM35.8925 17.0536C35.2158 17.0536 34.8728 16.6941 34.8728 15.9857V13.3719H35.5253V14.3494H36.3412V14.9177H35.5253V15.9857C35.5253 16.2419 35.6933 16.3949 35.9735 16.3949C36.1214 16.4135 36.2708 16.3817 36.4018 16.3041V16.9635C36.2393 17.0305 36.0661 17.0613 35.8925 17.0536ZM33.6286 17.0536C33.3811 17.0453 33.1394 16.967 32.9271 16.8262H32.9755V16.1672C33.1767 16.3683 33.4379 16.4815 33.7098 16.4853C33.8513 16.5033 33.9792 16.3914 33.9955 16.2358C33.9955 16.2355 33.9955 16.2355 33.9955 16.2352C33.9955 16.1383 33.8959 16.0707 33.6286 15.9853C33.1071 15.8923 32.8942 15.6553 32.8942 15.1672C32.8805 14.9277 32.9728 14.6955 33.1417 14.5438C33.3263 14.4039 33.5476 14.3353 33.7713 14.3478C33.9984 14.3263 34.2261 14.3818 34.4238 14.5069V15.1669C34.2351 15.011 34.0071 14.9238 33.7713 14.9171C33.5791 14.9171 33.4856 14.9988 33.4856 15.1669C33.4856 15.25 33.5328 15.3205 33.7713 15.4167C33.9995 15.4315 34.2188 15.5203 34.4008 15.6727C34.535 15.8208 34.6032 16.0264 34.5869 16.2349C34.588 16.8391 34.0927 17.0536 33.6286 17.0536ZM31.4258 17.0312C30.7651 17.0607 30.2078 16.4946 30.181 15.7669C30.1795 15.7262 30.1798 15.6855 30.1816 15.6448C30.1816 14.8879 30.7386 14.2744 31.4258 14.2744C32.113 14.2744 32.67 14.8879 32.67 15.6448C32.7044 16.3721 32.1968 16.9924 31.5367 17.0302C31.5 17.0325 31.4634 17.0325 31.4267 17.0308H31.4258V17.0312ZM31.4258 14.9177C31.0388 14.9177 30.8344 15.1691 30.8344 15.6451C30.8018 16.0091 31.0435 16.3333 31.374 16.3692C31.3911 16.3712 31.4086 16.3721 31.4261 16.3724C31.8131 16.3724 32.0175 16.121 32.0175 15.6451C32.0181 15.1826 31.8026 14.9177 31.4267 14.9177H31.4258ZM26.1644 17.0312C25.5037 17.0607 24.9464 16.4943 24.9199 15.7666C24.9185 15.7259 24.9187 15.6855 24.9205 15.6448C24.9112 14.8879 25.4603 14.266 26.1475 14.2558C26.8347 14.2455 27.3993 14.8504 27.4086 15.6072C27.4089 15.6197 27.4089 15.6322 27.4086 15.6451C27.443 16.3724 26.9358 16.9927 26.2754 17.0305C26.2384 17.0325 26.2011 17.0328 26.1644 17.0312ZM26.1644 14.9177C25.7777 14.9177 25.5733 15.1691 25.5733 15.6451C25.5407 16.0091 25.7824 16.3333 26.1129 16.3692C26.1301 16.3712 26.1472 16.3721 26.1647 16.3724C26.5517 16.3724 26.7561 16.121 26.7561 15.6451C26.7823 15.2734 26.5299 14.9485 26.1924 14.9196C26.1828 14.9187 26.1734 14.918 26.1644 14.9177ZM21.0248 17.0312C20.3641 17.0607 19.8068 16.4946 19.78 15.7669C19.7785 15.7262 19.7788 15.6855 19.7805 15.6448C19.7462 14.9174 20.2537 14.2968 20.9141 14.259C20.9511 14.2567 20.9878 14.2567 21.0248 14.2583C21.6858 14.2288 22.2431 14.7952 22.2696 15.5229C22.271 15.5636 22.2707 15.604 22.269 15.6448C22.3033 16.3721 21.7961 16.9924 21.1357 17.0302C21.0987 17.0325 21.0617 17.0328 21.0248 17.0312ZM21.0248 14.9177C20.6378 14.9177 20.4334 15.1691 20.4334 15.6451C20.4008 16.0091 20.6424 16.3333 20.9729 16.3692C20.9901 16.3712 21.0076 16.3721 21.0251 16.3724C21.412 16.3724 21.6164 16.121 21.6164 15.6451C21.6162 15.1826 21.4007 14.9177 21.0248 14.9177ZM23.146 16.9632H22.5747V14.5085C22.9221 14.3408 23.2974 14.2558 23.6769 14.2583C23.945 14.2311 24.2132 14.3119 24.4316 14.4857C24.6287 14.7089 24.726 15.0168 24.6966 15.3266V16.9629H24.044V15.3266C24.044 15.0704 23.8763 14.9174 23.5959 14.9174C23.4419 14.901 23.2867 14.9325 23.1478 15.0081V16.9629L23.146 16.9632ZM18.9647 16.9632H18.3118V15.3269C18.2865 15.013 18.3925 14.7035 18.5998 14.486C18.8118 14.3183 19.0706 14.2378 19.331 14.2587C19.4064 14.2619 19.4809 14.2753 19.5534 14.2987C19.6536 14.3302 19.7573 14.3478 19.8615 14.3507V15.0085C19.7214 14.937 19.5674 14.9058 19.4134 14.9177C19.0861 14.9177 18.9652 15.0287 18.9652 15.3269V16.9632H18.9647ZM17.3748 16.9632V15.3269C17.3748 15.0707 17.2071 14.9177 16.9267 14.9177C16.7726 14.9014 16.6174 14.9328 16.4785 15.0085V16.9632H15.8237V13.1221H16.5577V14.3494C16.6343 14.3452 16.7106 14.3331 16.7852 14.3125H16.7913C16.9086 14.2821 17.0283 14.2647 17.1486 14.2606C17.6372 14.2628 18.0317 14.7009 18.0297 15.2391C18.0297 15.2689 18.0282 15.299 18.0256 15.3289V16.9651L17.3748 16.9632Z" fill="#3C3C3B"/>
<defs>
<linearGradient id="paint0_linear_5_360" x1="6.35941" y1="15.4061" x2="11.8406" y2="15.4061" gradientUnits="userSpaceOnUse">
<stop stop-color="#006DB0"/>
<stop offset="0.332" stop-color="#0581C5"/>
<stop offset="0.733" stop-color="#1994D2"/>
<stop offset="1" stop-color="#199AD7"/>
</linearGradient>
</defs>
</svg>
