<svg width="166" height="95" viewBox="0 0 166 95" fill="none" xmlns="http://www.w3.org/2000/svg">
<path d="M108.251 40.8428C109.746 40.8428 110.743 41.892 110.909 43.0911V45.19C116.058 46.0893 119.713 50.1361 119.713 54.7825C119.713 56.1314 118.55 57.0307 117.055 57.0307C115.726 57.0307 114.563 55.9815 114.563 54.7825C114.563 51.7848 112.072 49.3865 108.75 49.3865C105.428 49.3865 102.77 51.6347 102.77 54.6324C102.77 57.6301 105.262 60.0284 108.584 60.0284C108.584 60.0284 108.584 60.0284 108.75 60.0284C114.73 59.8785 119.713 64.225 119.713 69.6208C119.879 74.4171 116.058 78.4639 110.909 79.3632V81.4614C110.909 82.8104 109.746 83.7097 108.251 83.7097C106.923 83.7097 105.76 82.6605 105.76 81.4614V79.2132C100.943 78.164 97.6207 74.2673 97.6207 69.7708C97.6207 68.4219 98.7835 67.5226 100.278 67.5226C101.607 67.5226 102.77 68.5717 102.77 69.7708C102.77 72.4687 105.095 74.5669 107.919 74.8667C108.251 74.8667 108.584 74.8667 108.75 74.8667C111.906 74.8667 114.563 72.4686 114.397 69.6208C114.397 66.773 111.74 64.375 108.584 64.5249H108.418C102.936 64.5249 98.2851 60.9275 97.4546 56.1313C96.7902 51.1851 100.278 46.6884 105.428 45.4894V43.2411C105.594 41.8922 106.756 40.8428 108.251 40.8428Z" fill="black"/>
<path d="M47.6231 40.9929V82.6606C47.6231 88.3562 52.7724 93.0025 59.0844 93.0025H151.937C158.249 93.0025 163.398 88.3562 163.398 82.6606V40.9929C163.398 35.2973 158.249 30.6509 151.937 30.6509H67.3896" stroke="black" stroke-width="3.2488" stroke-linecap="round" stroke-linejoin="round"/>
<path d="M53.2707 18.0607L77.6881 40.0936C80.8441 42.7915 80.8441 47.288 77.8542 49.9859C74.8643 52.8337 69.8812 52.8337 66.8913 50.1358L66.7252 49.9859L60.2471 44.1405C57.7555 41.8922 54.4334 40.6932 50.7791 40.6932H43.3044C39.1518 40.6932 35.3314 39.1943 32.3415 36.6463L25.199 30.2013" stroke="black" stroke-width="3.2488" stroke-linecap="round" stroke-linejoin="round"/>
<path d="M103.933 30.651L75.1966 7.41901C70.8779 3.97169 65.3964 2.02319 59.5827 2.02319H2.2766" stroke="black" stroke-width="3.2488" stroke-linecap="round" stroke-linejoin="round"/>
<path d="M47.7893 66.1734H43.8028C40.6468 66.1734 37.4908 64.9744 35.1653 62.876L26.8601 55.3818C24.5346 53.2834 21.3786 52.0844 17.8904 52.0844H1.94435" stroke="black" stroke-width="3.2488" stroke-linecap="round" stroke-linejoin="round"/>
</svg>
