<svg width="36" height="31" viewBox="0 0 36 31" fill="none" xmlns="http://www.w3.org/2000/svg">
<g clip-path="url(#clip0_65_7)">
<path d="M17.1055 31C16.9866 30.9799 16.8678 30.9397 16.7489 30.8794C16.5706 30.7991 15.9762 30.3872 14.9658 29.6439C12.5488 27.8962 10.3397 26.068 8.33873 24.1596C7.76419 23.6172 7.21936 23.0747 6.70425 22.5323C4.82212 20.5837 3.33622 18.6852 2.24657 16.837C1.67202 15.8727 1.20644 14.9386 0.849828 14.0346C0.374342 12.7689 0.0969753 11.5535 0.0177276 10.3884C-0.00208433 10.0067 -0.00208433 9.62497 0.0177276 9.24327C0.0969753 8.09818 0.374342 7.01336 0.849828 5.9888L0.9687 5.7176C1.36494 4.79349 1.88995 3.96983 2.54375 3.24662C2.74187 3.02563 2.9598 2.79461 3.19754 2.55354C3.93058 1.89059 4.75278 1.3532 5.66412 0.941371C6.57547 0.52954 7.52645 0.273402 8.51704 0.172955C9.07177 0.132777 9.62651 0.142822 10.1812 0.203089C11.1124 0.303536 12.0039 0.544607 12.8559 0.926304C13.7078 1.308 14.4903 1.82028 15.2036 2.46313C15.5404 2.76447 16.1743 3.42742 17.1055 4.45197L17.2838 4.66291L17.7296 4.18077C18.5617 3.23657 19.1065 2.64394 19.3641 2.40287C20.315 1.55912 21.3948 0.946393 22.6033 0.564697C23.693 0.203089 24.7876 0.0674867 25.8871 0.157888C26.9867 0.24829 28.0268 0.52954 29.0075 1.00164C29.9882 1.47374 30.8698 2.10153 31.6524 2.88501C32.435 3.66849 33.0541 4.5926 33.5098 5.65733L33.6584 5.9888C34.0546 6.83255 34.3122 7.71648 34.431 8.64059C34.4707 8.94193 34.4905 9.29349 34.4905 9.69528C34.4905 10.0971 34.4806 10.4285 34.4607 10.6897C34.2824 12.5982 33.5791 14.6071 32.3508 16.7165C30.8253 19.2879 28.537 21.9799 25.486 24.7924C23.584 26.5602 21.5137 28.2377 19.2749 29.8247C18.5022 30.3872 18.0119 30.7288 17.8039 30.8493C17.5959 30.9698 17.3631 31.0201 17.1055 31ZM17.4324 28.3482C19.6712 26.7812 21.791 25.0837 23.792 23.2555C24.8421 22.2913 25.793 21.3471 26.6449 20.423C29.8347 16.9676 31.6574 13.8538 32.113 11.0814C32.1725 10.6997 32.2071 10.308 32.217 9.90622C32.227 9.50443 32.2022 9.12273 32.1428 8.76113C32.0437 8.09818 31.8555 7.47541 31.5781 6.89282L31.4592 6.65175C30.9243 5.40621 30.1021 4.40175 28.9927 3.63836C27.8832 2.87496 26.6648 2.48322 25.3374 2.46313C24.5647 2.44304 23.8019 2.5686 23.0491 2.83981C22.2962 3.11101 21.6127 3.49773 20.9986 3.99996C20.8401 4.14059 20.6915 4.29126 20.5528 4.45197L19.6018 5.50666C18.948 6.27005 18.5221 6.74215 18.3239 6.92296C18.0664 7.18412 17.8286 7.35488 17.6107 7.43523L17.4621 7.46537H16.9866L16.3328 7.04349L16.1843 6.83255C14.9559 5.46648 14.1436 4.60264 13.7474 4.24104C13.2719 3.77898 12.737 3.40733 12.1426 3.12608C11.0133 2.56358 9.86425 2.3426 8.69535 2.46313C7.70475 2.56358 6.7934 2.85488 5.9613 3.33702C5.1292 3.81916 4.42588 4.46202 3.85133 5.26559C3.53434 5.66738 3.26688 6.12943 3.04895 6.65175L2.93008 6.92296C2.6329 7.52563 2.43478 8.19863 2.33572 8.94193C2.27629 9.34372 2.26638 9.75555 2.306 10.1774C2.38525 11.9453 3.07867 13.8739 4.38626 15.9631C5.23817 17.3694 6.37735 18.8359 7.80381 20.3627C8.47742 21.0859 9.19065 21.8091 9.9435 22.5323C11.8454 24.3404 13.9455 26.0781 16.2437 27.7455C16.8975 28.2276 17.2343 28.4587 17.2541 28.4386L17.4324 28.3482Z" fill="black"/>
</g>
<defs>
<clipPath id="clip0_65_7">
<rect width="36" height="30.8571" fill="white" transform="matrix(1 0 0 -1 0 31)"/>
</clipPath>
</defs>
</svg>
