<svg width="42" height="30" viewBox="0 0 42 30" fill="none" xmlns="http://www.w3.org/2000/svg">
<rect x="0.148163" width="40.8889" height="30" rx="5" fill="white"/>
<path d="M16.1481 24C20.5664 24 24.1481 19.9706 24.1481 15C24.1481 10.0294 20.5664 6 16.1481 6C11.7298 6 8.14812 10.0294 8.14812 15C8.14812 19.9706 11.7298 24 16.1481 24Z" fill="#EE0005"/>
<path d="M25.8085 24C30.2268 24 33.8085 19.9706 33.8085 15C33.8085 10.0294 30.2268 6 25.8085 6C21.3902 6 17.8085 10.0294 17.8085 15C17.8085 19.9706 21.3902 24 25.8085 24Z" fill="#F9A000"/>
<path d="M17.8085 14.9999C17.8085 17.8209 18.9882 20.3347 20.8274 21.9621C22.6665 20.3346 23.8462 17.8209 23.8462 14.9999C23.8462 12.1788 22.6666 9.66507 20.8274 8.0376C18.9882 9.6652 17.8085 12.1789 17.8085 14.9999Z" fill="#FF6300"/>
</svg>
