<svg width="42" height="30" viewBox="0 0 42 30" fill="none" xmlns="http://www.w3.org/2000/svg">
<rect x="0.814819" width="40.8889" height="30" rx="5" fill="white"/>
<path d="M25.4947 6.52441C25.4947 6.63524 25.4634 6.67379 25.4634 6.78703C24.9769 9.58911 23.4275 10.4878 21.425 10.4878H20.3914C20.1325 10.4878 19.9717 10.6757 19.907 10.9745L19.3891 14.8632L19.2597 15.9859C19.2283 16.1353 19.3557 16.2847 19.4852 16.3232H21.3582C21.5837 16.3232 21.7445 16.1353 21.7779 15.8751V15.7594L22.1329 13.2176L22.1642 13.0682C22.1955 12.8056 22.3897 12.6201 22.5839 12.6201H22.8428C24.6198 12.6201 25.9437 11.7599 26.3947 9.36744C26.5555 8.35793 26.4907 7.49779 26.0397 6.93641C25.8497 6.78703 25.7202 6.63765 25.4947 6.52441Z" fill="#149AD7"/>
<path d="M25.0102 6.30051C24.9141 6.30051 24.8807 6.26437 24.7847 6.26437C24.6886 6.26437 24.6239 6.22582 24.5592 6.22582C24.2689 6.18968 23.9453 6.11499 23.655 6.11499H20.9405C20.715 6.11499 20.5542 6.30292 20.5208 6.56313L19.9716 10.8614V10.9746C20.0029 10.6759 20.2305 10.488 20.456 10.488H21.4897C23.4921 10.488 25.0749 9.55313 25.526 6.7872C25.526 6.67396 25.5573 6.63782 25.5573 6.52458C25.4278 6.48603 25.2984 6.3752 25.171 6.33665L25.0102 6.30051Z" fill="#252F63"/>
<path d="M20.5209 6.59926C20.5522 6.33664 20.7464 6.15112 20.9406 6.15112H23.653C23.9433 6.15112 24.2669 6.15112 24.5572 6.26436C24.6532 6.26436 24.718 6.3005 24.7827 6.3005C24.8788 6.3005 24.9122 6.33664 25.0082 6.33664L25.1043 6.37278C25.2337 6.40892 25.3632 6.48361 25.4927 6.56071C25.6221 5.55119 25.4927 4.84043 25.0082 4.24292C24.4925 3.53216 23.5236 3.2334 22.3292 3.2334H18.842C18.5831 3.2334 18.4223 3.42133 18.3576 3.72009L16.9377 14.4104C16.9064 14.5983 17.0338 14.7477 17.1966 14.8224H19.3912L19.9404 10.859C19.9717 10.8614 20.5209 6.59926 20.5209 6.59926Z" fill="#253C7E"/>
<mask id="mask0_5_272" style="mask-type:luminance" maskUnits="userSpaceOnUse" x="8" y="19" width="19" height="7">
<path d="M8.70372 19.0864H26.9437V25.2515H8.70372V19.0864Z" fill="white"/>
</mask>
<g mask="url(#mask0_5_272)">
<path fill-rule="evenodd" clip-rule="evenodd" d="M25.4955 21.1649C25.3911 21.9616 24.8674 21.9616 24.3609 21.9616H24.0727L24.2748 20.4741C24.2871 20.3842 24.3538 20.3181 24.4322 20.3181H24.5642C24.909 20.3181 25.2347 20.3181 25.4026 20.5462C25.503 20.6828 25.5335 20.8852 25.4955 21.1649ZM25.2751 19.0864H23.3648C23.2342 19.0864 23.123 19.1968 23.1027 19.3468L22.3302 25.0376C22.315 25.1499 22.3897 25.2515 22.4875 25.2515H23.4676C23.559 25.2515 23.6369 25.1741 23.6511 25.0693L23.8702 23.4559C23.8905 23.306 24.0017 23.1956 24.1323 23.1956H24.7368C25.995 23.1956 26.7211 22.4881 26.911 21.0858C26.9964 20.4726 26.9144 19.9907 26.6673 19.6534C26.3956 19.2825 25.9141 19.0864 25.2751 19.0864Z" fill="white"/>
</g>
<mask id="mask1_5_272" style="mask-type:luminance" maskUnits="userSpaceOnUse" x="8" y="19" width="19" height="7">
<path d="M8.70372 19.0864H26.9437V25.2515H8.70372V19.0864Z" fill="white"/>
</mask>
<g mask="url(#mask1_5_272)">
<path fill-rule="evenodd" clip-rule="evenodd" d="M11.871 21.1649C11.7666 21.9616 11.2429 21.9616 10.7364 21.9616H10.4482L10.6504 20.4741C10.6626 20.3842 10.7292 20.3181 10.8076 20.3181H10.9397C11.2845 20.3181 11.6102 20.3181 11.7781 20.5462C11.8786 20.6828 11.909 20.8852 11.871 21.1649ZM11.6505 19.0864H9.74027C9.60973 19.0864 9.49845 19.1968 9.47813 19.3468L8.70567 25.0376C8.6905 25.1499 8.76512 25.2515 8.863 25.2515H9.77505C9.90567 25.2515 10.0169 25.141 10.0372 24.9911L10.2456 23.4559C10.266 23.306 10.3772 23.1956 10.5078 23.1956H11.1122C12.3705 23.1956 13.0967 22.4881 13.2865 21.0858C13.3719 20.4726 13.29 19.9907 13.0427 19.6534C12.7711 19.2825 12.2896 19.0864 11.6505 19.0864Z" fill="white"/>
</g>
<path fill-rule="evenodd" clip-rule="evenodd" d="M15.9564 23.3468C15.8697 23.9601 15.4629 24.3719 14.9439 24.3719C14.6838 24.3719 14.4756 24.2717 14.3417 24.082C14.209 23.8941 14.159 23.6264 14.2011 23.3281C14.2819 22.7203 14.6952 22.2953 15.2063 22.2953C15.461 22.2953 15.6679 22.3963 15.8044 22.5877C15.9418 22.7805 15.9957 23.0501 15.9564 23.3468ZM17.2064 21.2575H16.3095C16.2326 21.2575 16.1672 21.3244 16.1553 21.4153L16.1158 21.7154L16.0531 21.6067C15.8589 21.2692 15.4259 21.1565 14.9936 21.1565C14.0027 21.1565 13.1561 22.0552 12.9913 23.3155C12.9056 23.9444 13.0273 24.5452 13.3252 24.9647C13.599 25.35 13.9896 25.5105 14.455 25.5105C15.2537 25.5105 15.6967 24.8964 15.6967 24.8964L15.6567 25.1947C15.6418 25.3081 15.715 25.4108 15.811 25.4108H16.6187C16.7468 25.4108 16.8558 25.2994 16.8758 25.148L17.3607 21.4734C17.3757 21.36 17.3024 21.2575 17.2064 21.2575Z" fill="white"/>
<path fill-rule="evenodd" clip-rule="evenodd" d="M29.7008 23.3468C29.6142 23.9601 29.2073 24.3719 28.6884 24.3719C28.4282 24.3719 28.22 24.2717 28.0861 24.082C27.9534 23.8941 27.9034 23.6264 27.9455 23.3281C28.0263 22.7203 28.4397 22.2953 28.9508 22.2953C29.2055 22.2953 29.4122 22.3963 29.5488 22.5877C29.6862 22.7805 29.7401 23.0501 29.7008 23.3468ZM30.9509 21.2575H30.0539C29.9771 21.2575 29.9116 21.3244 29.8997 21.4153L29.8602 21.7154L29.7975 21.6067C29.6032 21.2692 29.1703 21.1565 28.738 21.1565C27.747 21.1565 26.9005 22.0552 26.7357 23.3155C26.65 23.9444 26.7717 24.5452 27.0697 24.9647C27.3433 25.35 27.734 25.5105 28.1994 25.5105C28.9981 25.5105 29.4412 24.8964 29.4412 24.8964L29.4011 25.1947C29.3861 25.3081 29.4594 25.4108 29.5554 25.4108H30.3632C30.4912 25.4108 30.6002 25.2994 30.6202 25.148L31.1051 21.4734C31.1201 21.36 31.0468 21.2575 30.9509 21.2575Z" fill="white"/>
<mask id="mask2_5_272" style="mask-type:luminance" maskUnits="userSpaceOnUse" x="17" y="19" width="17" height="8">
<path d="M17.9498 19.0869H33.2835V26.8007H17.9498V19.0869Z" fill="white"/>
</mask>
<g mask="url(#mask2_5_272)">
<path fill-rule="evenodd" clip-rule="evenodd" d="M22.2236 21.1699H21.3016C21.2135 21.1699 21.131 21.2214 21.0815 21.3071L19.8098 23.5088L19.2708 21.393C19.2371 21.2607 19.1334 21.1699 19.0159 21.1699H18.1096C18.0002 21.1699 17.9232 21.2965 17.9585 21.4182L18.9736 24.9209L18.0188 26.5046C17.9439 26.6289 18.0195 26.8008 18.149 26.8008H19.0701C19.1574 26.8008 19.2392 26.7505 19.2888 26.6662L22.3548 21.4646C22.4281 21.3401 22.3524 21.1699 22.2236 21.1699Z" fill="white"/>
</g>
<mask id="mask3_5_272" style="mask-type:luminance" maskUnits="userSpaceOnUse" x="17" y="19" width="17" height="8">
<path d="M17.9498 19.0869H33.2835V26.8007H17.9498V19.0869Z" fill="white"/>
</mask>
<g mask="url(#mask3_5_272)">
<path fill-rule="evenodd" clip-rule="evenodd" d="M31.2952 25.1248C31.28 25.2387 31.3549 25.3417 31.4529 25.3417H32.2435C32.3745 25.3417 32.486 25.2296 32.5064 25.0776L33.2816 19.304C33.2969 19.1899 33.222 19.0869 33.1238 19.0869H32.2391C32.1604 19.0869 32.0935 19.1542 32.0813 19.2455L31.2952 25.1248Z" fill="white"/>
</g>
<mask id="mask4_5_272" style="mask-type:luminance" maskUnits="userSpaceOnUse" x="9" y="18" width="19" height="7">
<path d="M9.28705 18.75H27.527V24.915H9.28705V18.75Z" fill="#4899D2"/>
</mask>
<g mask="url(#mask4_5_272)">
<path fill-rule="evenodd" clip-rule="evenodd" d="M26.0788 20.8285C25.9744 21.6251 25.4507 21.6251 24.9442 21.6251H24.656L24.8581 20.1377C24.8704 20.0478 24.9371 19.9816 25.0155 19.9816H25.1475C25.4924 19.9816 25.818 19.9816 25.9859 20.2098C26.0864 20.3464 26.1168 20.5488 26.0788 20.8285ZM25.8584 18.75H23.9481C23.8175 18.75 23.7063 18.8604 23.686 19.0103L22.9135 24.7012C22.8983 24.8135 22.973 24.915 23.0708 24.915H24.0509C24.1423 24.915 24.2202 24.8377 24.2344 24.7329L24.4535 23.1195C24.4738 22.9695 24.585 22.8591 24.7156 22.8591H25.3201C26.5783 22.8591 27.3045 22.1517 27.4943 20.7494C27.5797 20.1362 27.4977 19.6543 27.2506 19.3169C26.9789 18.9461 26.4974 18.75 25.8584 18.75Z" fill="#4899D2"/>
</g>
<mask id="mask5_5_272" style="mask-type:luminance" maskUnits="userSpaceOnUse" x="9" y="18" width="19" height="7">
<path d="M9.28705 18.75H27.527V24.915H9.28705V18.75Z" fill="#28387B"/>
</mask>
<g mask="url(#mask5_5_272)">
<path fill-rule="evenodd" clip-rule="evenodd" d="M12.4544 20.8285C12.3499 21.6251 11.8262 21.6251 11.3198 21.6251H11.0315L11.2337 20.1377C11.2459 20.0478 11.3126 19.9816 11.3909 19.9816H11.5231C11.8678 19.9816 12.1936 19.9816 12.3615 20.2098C12.4619 20.3464 12.4923 20.5488 12.4544 20.8285ZM12.2339 18.75H10.3236C10.1931 18.75 10.0818 18.8604 10.0615 19.0103L9.289 24.7012C9.27382 24.8135 9.34845 24.915 9.44633 24.915H10.3584C10.489 24.915 10.6002 24.8046 10.6205 24.6547L10.829 23.1195C10.8494 22.9695 10.9606 22.8591 11.0912 22.8591H11.6956C12.9539 22.8591 13.68 22.1517 13.8698 20.7494C13.9552 20.1362 13.8733 19.6543 13.6261 19.3169C13.3544 18.9461 12.8729 18.75 12.2339 18.75Z" fill="#28387B"/>
</g>
<path fill-rule="evenodd" clip-rule="evenodd" d="M16.5397 23.0103C16.4531 23.6237 16.0463 24.0354 15.5273 24.0354C15.2672 24.0354 15.0589 23.9353 14.925 23.7456C14.7923 23.5577 14.7424 23.2899 14.7845 22.9917C14.8652 22.3839 15.2786 21.9589 15.7896 21.9589C16.0443 21.9589 16.2512 22.0599 16.3877 22.2513C16.5251 22.444 16.5791 22.7136 16.5397 23.0103ZM17.7898 20.9211H16.8929C16.8159 20.9211 16.7505 20.9879 16.7386 21.0788L16.6992 21.379L16.6364 21.2702C16.4422 20.9327 16.0093 20.8201 15.577 20.8201C14.586 20.8201 13.7395 21.7187 13.5746 22.9791C13.4889 23.608 13.6107 24.2088 13.9085 24.6283C14.1823 25.0136 14.5729 25.174 15.0383 25.174C15.8371 25.174 16.2801 24.56 16.2801 24.56L16.24 24.8583C16.2251 24.9717 16.2984 25.0744 16.3943 25.0744H17.202C17.3301 25.0744 17.4392 24.963 17.4591 24.8115L17.9441 21.1369C17.959 21.0235 17.8858 20.9211 17.7898 20.9211Z" fill="#28387B"/>
<path fill-rule="evenodd" clip-rule="evenodd" d="M30.2841 23.0103C30.1975 23.6237 29.7906 24.0354 29.2717 24.0354C29.0115 24.0354 28.8033 23.9353 28.6694 23.7456C28.5367 23.5577 28.4867 23.2899 28.5288 22.9917C28.6096 22.3839 29.023 21.9589 29.5341 21.9589C29.7888 21.9589 29.9956 22.0599 30.1321 22.2513C30.2695 22.444 30.3234 22.7136 30.2841 23.0103ZM31.5342 20.9211H30.6372C30.5604 20.9211 30.495 20.9879 30.483 21.0788L30.4435 21.379L30.3809 21.2702C30.1866 20.9327 29.7536 20.8201 29.3213 20.8201C28.3304 20.8201 27.4838 21.7187 27.319 22.9791C27.2333 23.608 27.355 24.2088 27.653 24.6283C27.9267 25.0136 28.3173 25.174 28.7827 25.174C29.5814 25.174 30.0245 24.56 30.0245 24.56L29.9844 24.8583C29.9694 24.9717 30.0427 25.0744 30.1387 25.0744H30.9465C31.0745 25.0744 31.1835 24.963 31.2036 24.8115L31.6884 21.1369C31.7034 21.0235 31.6301 20.9211 31.5342 20.9211Z" fill="#4899D2"/>
<mask id="mask6_5_272" style="mask-type:luminance" maskUnits="userSpaceOnUse" x="18" y="18" width="16" height="9">
<path d="M18.5331 18.7505H33.8669V26.4643H18.5331V18.7505Z" fill="#28387B"/>
</mask>
<g mask="url(#mask6_5_272)">
<path fill-rule="evenodd" clip-rule="evenodd" d="M22.8069 20.8335H21.885C21.7968 20.8335 21.7143 20.885 21.6648 20.9706L20.3931 23.1723L19.8542 21.0566C19.8204 20.9243 19.7168 20.8335 19.5992 20.8335H18.693C18.5835 20.8335 18.5065 20.9601 18.5418 21.0818L19.557 24.5844L18.6021 26.1682C18.5272 26.2925 18.6028 26.4644 18.7324 26.4644H19.6534C19.7407 26.4644 19.8225 26.4141 19.8721 26.3298L22.9381 21.1282C23.0115 21.0037 22.9357 20.8335 22.8069 20.8335Z" fill="#28387B"/>
</g>
<mask id="mask7_5_272" style="mask-type:luminance" maskUnits="userSpaceOnUse" x="18" y="18" width="16" height="9">
<path d="M18.5331 18.7505H33.8669V26.4643H18.5331V18.7505Z" fill="#4899D2"/>
</mask>
<g mask="url(#mask7_5_272)">
<path fill-rule="evenodd" clip-rule="evenodd" d="M31.8785 24.7884C31.8633 24.9023 31.9382 25.0052 32.0363 25.0052H32.8269C32.9578 25.0052 33.0693 24.8932 33.0897 24.7411L33.8649 18.9675C33.8802 18.8535 33.8053 18.7505 33.7071 18.7505H32.8224C32.7437 18.7505 32.6768 18.8177 32.6646 18.9091L31.8785 24.7884Z" fill="#4899D2"/>
</g>
</svg>
